<?xml version="1.0" encoding="utf-8"?>
<!-- Generator: Adobe Illustrator 24.1.2, SVG Export Plug-In . SVG Version: 6.00 Build 0)  -->
<svg version="1.1" id="Ebene_1" xmlns="http://www.w3.org/2000/svg" xmlns:xlink="http://www.w3.org/1999/xlink" x="0px" y="0px"
	 viewBox="0 0 326.5 135.6" style="enable-background:new 0 0 326.5 135.6;" xml:space="preserve">
<style type="text/css">
	.st0{fill:#3E3E3B;}
	.st1{fill:#4C4C4A;}
	.st2{fill:#8ABE33;}
	.st3{fill:#3F3F3C;}
	.st4{fill:#7AB629;}
	.st5{fill:#FFFFFF;}
</style>
<path class="st0" d="M112.1,42.9h6v5.2h-6V42.9z M112.4,70.3V51.6h5.6v18.7H112.4z"/>
<path class="st0" d="M129.8,48.8c0.2-0.4,0.6-0.8,1-1c0.4-0.2,0.9-0.3,1.4-0.3c0.5,0,1.1,0.1,1.8,0.3v-4.3c-0.5-0.2-1-0.3-1.5-0.4
	c-0.5-0.1-1.1-0.1-1.6-0.1c-2.3,0-4.1,0.7-5.2,2c-1.2,1.3-1.8,3.1-1.8,5.5v1.2h-3.5v4.2h3.5v14.5h5.6V55.8h3.9v-4.2h-3.9v-1
	C129.4,49.9,129.5,49.3,129.8,48.8z"/>
<path class="st0" d="M145.2,78.5c-2.9,0-5.5-0.6-7.7-1.7l0.8-4.1c1.1,0.6,2.2,1,3.4,1.3c1.1,0.3,2.2,0.4,3.4,0.4
	c1.6,0,2.8-0.4,3.6-1.1c0.8-0.7,1.2-1.9,1.2-3.4v-4.3l0.4,0.2c-0.3,0.7-0.7,1.3-1.4,2c-0.6,0.6-1.4,1.1-2.2,1.5
	c-0.9,0.4-1.8,0.6-2.8,0.6c-1.6,0-3.1-0.4-4.3-1.2c-1.3-0.8-2.2-1.9-2.9-3.3c-0.7-1.4-1.1-3-1.1-4.9c0-1.9,0.4-3.5,1.1-4.9
	c0.7-1.4,1.7-2.5,2.9-3.3c1.3-0.8,2.7-1.2,4.3-1.2c1.5,0,2.9,0.4,4,1.1c1.2,0.7,2,1.7,2.4,3l-0.4,0.3v-3.9h5.5v17.8
	c0,3-0.9,5.3-2.6,6.8C151.1,77.8,148.5,78.5,145.2,78.5z M145.5,65.5c1.3,0,2.4-0.4,3.2-1.3c0.8-0.9,1.2-2.1,1.2-3.7
	c0-1.5-0.4-2.8-1.1-3.7c-0.8-0.9-1.8-1.4-3.2-1.4c-1.4,0-2.5,0.4-3.2,1.3c-0.8,0.9-1.2,2.1-1.2,3.7c0,1.6,0.4,2.8,1.2,3.7
	C143,65.1,144.1,65.5,145.5,65.5z"/>
<path class="st0" d="M159.6,42.9h6v5.2h-6V42.9z M159.8,70.3V51.6h5.6v18.7H159.8z"/>
<g>
	<polygon class="st1" points="96.6,70.3 96.4,21.6 62.6,28.6 13.7,13.3 13.7,33.5 62.6,48.8 89.1,42.6 89.1,72.2 	"/>
	<polygon class="st2" points="62.6,54.2 62.6,54.2 13.7,38.9 13.7,63.6 62.6,78.9 62.6,78.9 84.5,73.4 84.5,48.7 	"/>
	<polygon class="st3" points="96.6,70.3 96.4,21.6 62.6,28.6 62.6,48.8 89.1,42.6 89.1,72.2 	"/>
	<polygon class="st4" points="62.6,78.9 84.5,73.4 84.5,48.7 62.6,54.2 	"/>
</g>
<g>
	<rect x="89.1" y="85.6" class="st0" width="1.5" height="12.8"/>
	<path class="st0" d="M98.1,89.2c-0.8,0-1.4,0.2-2,0.6C95.6,90,95.2,90.5,95,91l-0.1-1.6h-1.4c0.1,0.4,0.1,0.8,0.1,1.3
		c0,0.4,0,0.8,0,1.3v6.5H95v-5.2c0-0.9,0.3-1.6,0.8-2.1s1.2-0.8,2-0.8c0.7,0,1.2,0.2,1.6,0.6c0.3,0.4,0.5,1,0.5,1.8v5.6h1.5v-5.7
		C101.4,90.4,100.3,89.2,98.1,89.2z"/>
	<path class="st0" d="M108.2,93.5l-1.5-0.4c-0.5-0.1-0.8-0.3-1.1-0.5c-0.2-0.2-0.3-0.5-0.3-0.9c0-0.4,0.2-0.8,0.5-1
		c0.4-0.3,0.9-0.4,1.5-0.4c0.5,0,1,0.1,1.4,0.3c0.4,0.2,0.9,0.4,1.3,0.8l0.5-1.1c-0.4-0.4-0.9-0.7-1.4-0.9c-0.6-0.2-1.2-0.3-1.8-0.3
		c-0.7,0-1.3,0.1-1.8,0.3c-0.5,0.2-0.9,0.5-1.2,0.9c-0.3,0.4-0.4,0.9-0.4,1.4c0,0.6,0.2,1.1,0.6,1.5c0.4,0.4,1,0.7,1.8,0.9l1.5,0.4
		c0.6,0.1,0.9,0.3,1.2,0.5c0.2,0.2,0.4,0.5,0.4,0.9c0,0.4-0.2,0.8-0.5,1c-0.4,0.2-0.9,0.4-1.6,0.4c-0.6,0-1.2-0.1-1.7-0.3
		c-0.5-0.2-1-0.4-1.5-0.8l-0.5,1.1c0.9,0.8,2.1,1.2,3.6,1.2c1.1,0,2-0.2,2.6-0.7c0.6-0.5,1-1.1,1-1.9c0-0.6-0.2-1.2-0.6-1.6
		C109.7,94,109.1,93.7,108.2,93.5z"/>
	<path class="st0" d="M113.4,95.7c0,1,0.2,1.7,0.7,2.2c0.5,0.5,1.2,0.7,2,0.7c0.2,0,0.5,0,0.7,0s0.4-0.1,0.6-0.1v-1.2
		c-0.2,0.1-0.3,0.1-0.5,0.1c-0.1,0-0.3,0-0.5,0c-0.3,0-0.6-0.1-0.8-0.2c-0.2-0.1-0.4-0.3-0.6-0.5c-0.1-0.3-0.2-0.6-0.2-1.1v-4.9h2.6
		v-1.2h-2.6v-2.8l-1.5,0.5v2.3h-1.8v1.2h1.8V95.7z"/>
	<rect x="119.1" y="85.5" class="st0" width="1.8" height="1.7"/>
	<rect x="119.2" y="89.4" class="st0" width="1.5" height="9.1"/>
	<path class="st0" d="M124,95.7c0,1,0.2,1.7,0.7,2.2c0.5,0.5,1.2,0.7,2,0.7c0.2,0,0.5,0,0.7,0c0.2,0,0.4-0.1,0.6-0.1v-1.2
		c-0.2,0.1-0.3,0.1-0.5,0.1c-0.1,0-0.3,0-0.5,0c-0.3,0-0.6-0.1-0.8-0.2c-0.2-0.1-0.4-0.3-0.6-0.5c-0.1-0.3-0.2-0.6-0.2-1.1v-4.9h2.6
		v-1.2h-2.6v-2.8l-1.5,0.5v2.3h-1.8v1.2h1.8V95.7z"/>
	<path class="st0" d="M137.4,98.4v-9.1H136v5.1c0,0.9-0.2,1.6-0.7,2.1c-0.5,0.5-1.1,0.8-1.9,0.8c-0.7,0-1.2-0.2-1.5-0.6
		s-0.5-1-0.5-1.8v-5.6h-1.5V95c0,1.2,0.3,2.1,0.8,2.7c0.5,0.6,1.4,0.9,2.4,0.9c0.7,0,1.4-0.2,2-0.6c0.4-0.3,0.8-0.7,1-1.1v1.6H137.4
		z"/>
	<path class="st0" d="M144.1,98.5c0.2,0,0.4-0.1,0.6-0.1v-1.2c-0.2,0.1-0.3,0.1-0.5,0.1c-0.1,0-0.3,0-0.5,0c-0.3,0-0.6-0.1-0.8-0.2
		c-0.2-0.1-0.4-0.3-0.6-0.5c-0.1-0.3-0.2-0.6-0.2-1.1v-4.9h2.6v-1.2h-2.6v-2.8l-1.5,0.5v2.3h-1.8v1.2h1.8v5.1c0,1,0.2,1.7,0.7,2.2
		c0.5,0.5,1.2,0.7,2,0.7C143.7,98.6,143.9,98.5,144.1,98.5z"/>
	<path class="st0" d="M152.3,89.7c-0.6-0.4-1.3-0.5-2.1-0.5c-0.8,0-1.6,0.2-2.2,0.6c-0.6,0.4-1.1,0.9-1.5,1.7s-0.5,1.5-0.5,2.5
		c0,1,0.2,1.8,0.5,2.5s0.9,1.2,1.6,1.6c0.7,0.4,1.5,0.6,2.4,0.6c0.6,0,1.3-0.1,1.9-0.3c0.6-0.2,1.1-0.5,1.5-0.9l-0.5-1.1
		c-0.4,0.4-0.9,0.6-1.4,0.8c-0.5,0.2-1,0.3-1.5,0.3c-1,0-1.8-0.3-2.3-0.9c-0.5-0.6-0.8-1.5-0.8-2.6h6.6v-0.3c0-0.9-0.2-1.7-0.5-2.4
		C153.3,90.6,152.9,90.1,152.3,89.7z M148.2,91.2c0.5-0.6,1.2-0.9,2.1-0.9c0.8,0,1.5,0.3,1.9,0.8c0.3,0.4,0.5,1,0.6,1.8h-5.3
		C147.6,92.2,147.8,91.7,148.2,91.2z"/>
	<path class="st0" d="M161.5,98.4h1.5v-7.9h2.2v-1.2H163v-1.2c0-0.5,0.1-0.8,0.2-1.1c0.1-0.3,0.3-0.4,0.5-0.5
		c0.2-0.1,0.5-0.2,0.8-0.2s0.6,0,0.9,0.1v-1.2c-0.2-0.1-0.4-0.1-0.6-0.1c-0.2,0-0.4,0-0.6,0c-0.8,0-1.5,0.2-2,0.7
		c-0.5,0.5-0.7,1.2-0.7,2.2v1.4h-1.8v1.2h1.8V98.4z"/>
	<path class="st0" d="M173,89.7c-0.6-0.4-1.4-0.6-2.3-0.6s-1.6,0.2-2.3,0.6c-0.6,0.4-1.1,0.9-1.5,1.6c-0.4,0.7-0.5,1.5-0.5,2.5
		c0,1,0.2,1.8,0.5,2.5c0.4,0.7,0.9,1.2,1.5,1.6c0.6,0.4,1.4,0.6,2.3,0.6s1.6-0.2,2.3-0.6c0.6-0.4,1.1-0.9,1.5-1.6
		c0.4-0.7,0.5-1.5,0.5-2.5c0-0.9-0.2-1.8-0.5-2.5C174.1,90.7,173.6,90.1,173,89.7z M172.8,96.5c-0.5,0.6-1.2,0.9-2.1,0.9
		c-0.9,0-1.6-0.3-2.1-0.9s-0.7-1.5-0.7-2.6c0-1.1,0.2-2,0.7-2.6c0.5-0.6,1.2-0.9,2.1-0.9s1.6,0.3,2.1,0.9c0.5,0.6,0.7,1.5,0.7,2.6
		C173.5,95,173.3,95.9,172.8,96.5z"/>
	<path class="st0" d="M177.3,91.9v6.5h1.5v-5.2c0-0.5,0.1-0.9,0.3-1.3s0.5-0.8,0.8-1.1s0.9-0.4,1.5-0.4c0.4,0,0.7,0,1,0.1l0-1.3
		c-0.1,0-0.2-0.1-0.4-0.1c-0.1,0-0.3,0-0.4,0c-0.7,0-1.3,0.2-1.9,0.6c-0.4,0.3-0.7,0.7-0.9,1.3l-0.1-1.7h-1.4
		c0.1,0.4,0.1,0.8,0.1,1.3C177.3,91.1,177.3,91.5,177.3,91.9z"/>
	<path class="st0" d="M198.8,91.8h-4.5v1.2h3.2v3.9c-0.4,0.1-0.8,0.2-1.3,0.3c-0.6,0.1-1.2,0.2-1.8,0.2c-1.5,0-2.7-0.5-3.5-1.4
		c-0.8-0.9-1.2-2.2-1.2-4c0-1.7,0.4-3,1.2-3.9c0.8-0.9,1.9-1.4,3.3-1.4c0.7,0,1.4,0.1,2,0.4c0.6,0.2,1.2,0.6,1.8,1.1l0.6-1.1
		c-0.6-0.5-1.2-0.9-2-1.2c-0.8-0.3-1.6-0.4-2.5-0.4c-1.2,0-2.3,0.3-3.2,0.8c-0.9,0.5-1.6,1.3-2.1,2.2c-0.5,1-0.7,2.2-0.7,3.5
		c0,1.4,0.2,2.6,0.7,3.5c0.5,1,1.2,1.7,2.1,2.2c0.9,0.5,2,0.8,3.3,0.8c0.6,0,1.1,0,1.7-0.1c0.6-0.1,1.1-0.2,1.6-0.3s0.9-0.3,1.2-0.5
		V91.8z"/>
	<path class="st0" d="M203.2,98c0.7,0.4,1.5,0.6,2.4,0.6c0.6,0,1.3-0.1,1.9-0.3c0.6-0.2,1.1-0.5,1.5-0.9l-0.5-1.1
		c-0.4,0.4-0.9,0.6-1.4,0.8c-0.5,0.2-1,0.3-1.5,0.3c-1,0-1.8-0.3-2.3-0.9c-0.5-0.6-0.8-1.5-0.8-2.6h6.6v-0.3c0-0.9-0.2-1.7-0.5-2.4
		c-0.3-0.7-0.7-1.2-1.3-1.5c-0.6-0.4-1.3-0.5-2.1-0.5c-0.8,0-1.6,0.2-2.2,0.6c-0.6,0.4-1.1,0.9-1.5,1.7c-0.4,0.7-0.5,1.5-0.5,2.5
		c0,1,0.2,1.8,0.5,2.5C202,97.1,202.5,97.6,203.2,98z M203.3,91.2c0.5-0.6,1.2-0.9,2.1-0.9c0.8,0,1.5,0.3,1.9,0.8
		c0.3,0.4,0.5,1,0.6,1.8h-5.3C202.8,92.2,203,91.7,203.3,91.2z"/>
	<path class="st0" d="M215.2,98.6c0.9,0,1.6-0.2,2.3-0.6c0.6-0.4,1.1-0.9,1.5-1.6c0.4-0.7,0.5-1.5,0.5-2.5c0-0.9-0.2-1.8-0.5-2.5
		c-0.4-0.7-0.9-1.3-1.5-1.6c-0.6-0.4-1.4-0.6-2.3-0.6c-0.9,0-1.6,0.2-2.3,0.6c-0.6,0.4-1.1,0.9-1.5,1.6c-0.4,0.7-0.5,1.5-0.5,2.5
		c0,1,0.2,1.8,0.5,2.5c0.4,0.7,0.9,1.2,1.5,1.6C213.6,98.4,214.3,98.6,215.2,98.6z M213.1,91.3c0.5-0.6,1.2-0.9,2.1-0.9
		s1.6,0.3,2.1,0.9c0.5,0.6,0.7,1.5,0.7,2.6c0,1.1-0.2,2-0.7,2.6c-0.5,0.6-1.2,0.9-2.1,0.9c-0.9,0-1.6-0.3-2.1-0.9
		c-0.5-0.6-0.7-1.5-0.7-2.6C212.4,92.7,212.6,91.9,213.1,91.3z"/>
	<rect x="221.6" y="85.5" class="st0" width="1.8" height="1.7"/>
	<rect x="221.7" y="89.4" class="st0" width="1.5" height="9.1"/>
	<path class="st0" d="M233.8,98.4v-5.7c0-2.4-1.1-3.6-3.3-3.6c-0.8,0-1.4,0.2-2,0.6c-0.5,0.3-0.8,0.7-1.1,1.3l-0.1-1.6h-1.4
		c0.1,0.4,0.1,0.8,0.1,1.3c0,0.4,0,0.8,0,1.3v6.5h1.5v-5.2c0-0.9,0.3-1.6,0.8-2.1s1.2-0.8,2-0.8c0.7,0,1.2,0.2,1.6,0.6
		c0.3,0.4,0.5,1,0.5,1.8v5.6H233.8z"/>
	<path class="st0" d="M239.7,85.1c-0.8,0-1.5,0.2-2,0.7c-0.5,0.5-0.7,1.2-0.7,2.2v1.4h-1.8v1.2h1.8v7.9h1.5v-7.9h2.2v-1.2h-2.2v-1.2
		c0-0.5,0.1-0.8,0.2-1.1c0.1-0.3,0.3-0.4,0.5-0.5c0.2-0.1,0.5-0.2,0.8-0.2s0.6,0,0.9,0.1v-1.2c-0.2-0.1-0.4-0.1-0.6-0.1
		C240.1,85.1,239.9,85.1,239.7,85.1z"/>
	<path class="st0" d="M244,98c0.6,0.4,1.4,0.6,2.3,0.6s1.6-0.2,2.3-0.6c0.6-0.4,1.1-0.9,1.5-1.6c0.4-0.7,0.5-1.5,0.5-2.5
		c0-0.9-0.2-1.8-0.5-2.5c-0.4-0.7-0.9-1.3-1.5-1.6c-0.6-0.4-1.4-0.6-2.3-0.6s-1.6,0.2-2.3,0.6c-0.6,0.4-1.1,0.9-1.5,1.6
		c-0.4,0.7-0.5,1.5-0.5,2.5c0,1,0.2,1.8,0.5,2.5C242.9,97.1,243.4,97.6,244,98z M244.2,91.3c0.5-0.6,1.2-0.9,2.1-0.9
		s1.6,0.3,2.1,0.9c0.5,0.6,0.7,1.5,0.7,2.6c0,1.1-0.2,2-0.7,2.6c-0.5,0.6-1.2,0.9-2.1,0.9c-0.9,0-1.6-0.3-2.1-0.9s-0.7-1.5-0.7-2.6
		C243.5,92.7,243.7,91.9,244.2,91.3z"/>
	<path class="st0" d="M257,89.2c-0.7,0-1.3,0.2-1.9,0.6c-0.4,0.3-0.7,0.7-0.9,1.3l-0.1-1.7h-1.4c0.1,0.4,0.1,0.8,0.1,1.3
		c0,0.4,0,0.8,0,1.3v6.5h1.5v-5.2c0-0.5,0.1-0.9,0.3-1.3s0.5-0.8,0.8-1.1s0.9-0.4,1.5-0.4c0.4,0,0.7,0,1,0.1l0-1.3
		c-0.1,0-0.2-0.1-0.4-0.1C257.3,89.2,257.2,89.2,257,89.2z"/>
	<path class="st0" d="M269.4,89.2c-0.8,0-1.5,0.2-2.1,0.6c-0.4,0.3-0.7,0.7-0.9,1.1c-0.2-0.5-0.4-0.9-0.7-1.1
		c-0.5-0.4-1.2-0.6-2-0.6c-0.7,0-1.4,0.2-1.9,0.6c-0.4,0.3-0.7,0.7-1,1.2l-0.1-1.6h-1.4c0.1,0.4,0.1,0.8,0.1,1.3c0,0.4,0,0.8,0,1.3
		v6.5h1.5v-5.2c0-0.9,0.2-1.6,0.7-2.1c0.4-0.5,1-0.8,1.8-0.8c0.6,0,1.1,0.2,1.4,0.6c0.3,0.4,0.5,1,0.5,1.8v5.6h1.5v-5.2
		c0-0.9,0.2-1.6,0.7-2.1c0.4-0.5,1-0.8,1.8-0.8c0.6,0,1.1,0.2,1.4,0.6c0.3,0.4,0.5,1,0.5,1.8v5.6h1.5v-5.7c0-1.2-0.3-2.1-0.8-2.7
		C271.1,89.5,270.4,89.2,269.4,89.2z"/>
	<path class="st0" d="M281.7,90.9c-0.2-0.5-0.5-0.9-1-1.2c-0.6-0.4-1.3-0.6-2.1-0.6c-0.8,0-1.5,0.2-2.1,0.6
		c-0.6,0.4-1.1,0.9-1.4,1.7s-0.5,1.5-0.5,2.5c0,0.9,0.2,1.8,0.5,2.5s0.8,1.2,1.4,1.6c0.6,0.4,1.3,0.6,2.1,0.6c0.8,0,1.5-0.2,2.1-0.6
		c0.4-0.3,0.7-0.7,1-1.2v1.6h1.4v-9.1h-1.4V90.9z M281,96.4c-0.5,0.6-1.2,0.9-2.1,0.9s-1.6-0.3-2.1-0.9c-0.5-0.6-0.7-1.5-0.7-2.6
		c0-1.1,0.2-2,0.7-2.6c0.5-0.6,1.2-0.9,2.1-0.9c0.9,0,1.6,0.3,2,0.9c0.5,0.6,0.7,1.5,0.7,2.6C281.7,95,281.5,95.8,281,96.4z"/>
	<path class="st0" d="M287.9,86.5l-1.5,0.5v2.3h-1.8v1.2h1.8v5.1c0,1,0.2,1.7,0.7,2.2c0.5,0.5,1.2,0.7,2,0.7c0.2,0,0.5,0,0.7,0
		c0.2,0,0.4-0.1,0.6-0.1v-1.2c-0.2,0.1-0.3,0.1-0.5,0.1c-0.1,0-0.3,0-0.5,0c-0.3,0-0.6-0.1-0.8-0.2c-0.2-0.1-0.4-0.3-0.6-0.5
		c-0.1-0.3-0.2-0.6-0.2-1.1v-4.9h2.6v-1.2h-2.6V86.5z"/>
	<rect x="292.3" y="89.4" class="st0" width="1.5" height="9.1"/>
	<rect x="292.1" y="85.5" class="st0" width="1.8" height="1.7"/>
	<path class="st0" d="M300.5,90.4c0.5,0,0.9,0.1,1.3,0.3c0.4,0.2,0.9,0.4,1.3,0.8l0.5-1.1c-0.4-0.4-0.8-0.7-1.4-0.9
		c-0.6-0.2-1.2-0.3-1.8-0.3c-0.9,0-1.7,0.2-2.3,0.6c-0.7,0.4-1.2,1-1.5,1.7c-0.4,0.7-0.5,1.5-0.5,2.5c0,0.9,0.2,1.8,0.5,2.5
		c0.4,0.7,0.9,1.2,1.5,1.6c0.6,0.4,1.4,0.6,2.3,0.6c0.6,0,1.2-0.1,1.8-0.3s1.1-0.5,1.4-0.9l-0.5-1.1c-0.4,0.3-0.9,0.6-1.3,0.8
		c-0.4,0.2-0.9,0.3-1.3,0.3c-0.9,0-1.7-0.3-2.2-0.9c-0.5-0.6-0.8-1.5-0.8-2.6c0-1.1,0.3-2,0.8-2.6S299.6,90.4,300.5,90.4z"/>
	<path class="st0" d="M311.5,94.4c-0.4-0.4-1-0.7-1.9-0.9l-1.5-0.4c-0.5-0.1-0.8-0.3-1.1-0.5c-0.2-0.2-0.3-0.5-0.3-0.9
		c0-0.4,0.2-0.8,0.5-1c0.4-0.3,0.9-0.4,1.5-0.4c0.5,0,1,0.1,1.4,0.3c0.4,0.2,0.9,0.4,1.3,0.8l0.5-1.1c-0.4-0.4-0.9-0.7-1.4-0.9
		c-0.6-0.2-1.2-0.3-1.8-0.3c-0.7,0-1.3,0.1-1.8,0.3c-0.5,0.2-0.9,0.5-1.2,0.9c-0.3,0.4-0.4,0.9-0.4,1.4c0,0.6,0.2,1.1,0.6,1.5
		c0.4,0.4,1,0.7,1.8,0.9l1.5,0.4c0.6,0.1,0.9,0.3,1.2,0.5c0.2,0.2,0.4,0.5,0.4,0.9c0,0.4-0.2,0.8-0.5,1c-0.4,0.2-0.9,0.4-1.6,0.4
		c-0.6,0-1.2-0.1-1.7-0.3c-0.5-0.2-1-0.4-1.5-0.8l-0.5,1.1c0.9,0.8,2.1,1.2,3.6,1.2c1.1,0,2-0.2,2.6-0.7c0.6-0.5,1-1.1,1-1.9
		C312.1,95.4,311.9,94.8,311.5,94.4z"/>
	<path class="st0" d="M97.7,114.5c0,1.2-0.3,2.2-0.9,2.8c-0.6,0.6-1.5,1-2.7,1c-1.2,0-2.1-0.3-2.7-0.9c-0.6-0.6-0.9-1.6-0.9-2.8
		v-7.9H89v7.8c0,1.7,0.4,3,1.3,3.9c0.9,0.9,2.1,1.3,3.8,1.3c1.7,0,2.9-0.4,3.8-1.3c0.9-0.9,1.3-2.2,1.3-3.9v-7.8h-1.5V114.5z"/>
	<path class="st0" d="M106.6,110.2c-0.8,0-1.4,0.2-2,0.6c-0.5,0.3-0.8,0.7-1.1,1.3l-0.1-1.6H102c0.1,0.4,0.1,0.8,0.1,1.3
		c0,0.4,0,0.8,0,1.3v6.5h1.5v-5.2c0-0.9,0.3-1.6,0.8-2.1s1.2-0.8,2-0.8c0.7,0,1.2,0.2,1.6,0.6c0.3,0.4,0.5,1,0.5,1.8v5.6h1.5v-5.7
		C109.9,111.4,108.8,110.2,106.6,110.2z"/>
	<rect x="112.5" y="106.5" class="st0" width="1.8" height="1.7"/>
	<rect x="112.6" y="110.4" class="st0" width="1.5" height="9.1"/>
	<polygon class="st0" points="120.3,117.9 117.3,110.4 115.7,110.4 119.6,119.4 121,119.4 124.9,110.4 123.4,110.4 	"/>
	<path class="st0" d="M132.2,110.7c-0.6-0.4-1.3-0.5-2.1-0.5c-0.8,0-1.6,0.2-2.2,0.6c-0.6,0.4-1.1,0.9-1.5,1.7
		c-0.4,0.7-0.5,1.5-0.5,2.5c0,1,0.2,1.8,0.5,2.5c0.4,0.7,0.9,1.2,1.6,1.6c0.7,0.4,1.5,0.6,2.4,0.6c0.6,0,1.3-0.1,1.9-0.3
		c0.6-0.2,1.1-0.5,1.5-0.9l-0.5-1.1c-0.4,0.4-0.9,0.6-1.4,0.8c-0.5,0.2-1,0.3-1.5,0.3c-1,0-1.8-0.3-2.3-0.9
		c-0.5-0.6-0.8-1.5-0.8-2.6h6.6v-0.3c0-0.9-0.2-1.7-0.5-2.4C133.2,111.6,132.7,111.1,132.2,110.7z M128,112.2
		c0.5-0.6,1.2-0.9,2.1-0.9c0.8,0,1.5,0.3,1.9,0.8c0.3,0.4,0.5,1,0.6,1.8h-5.3C127.5,113.2,127.7,112.7,128,112.2z"/>
	<path class="st0" d="M140.4,110.2c-0.7,0-1.3,0.2-1.9,0.6c-0.4,0.3-0.7,0.7-0.9,1.3l-0.1-1.7H136c0.1,0.4,0.1,0.8,0.1,1.3
		c0,0.4,0,0.8,0,1.3v6.5h1.5v-5.2c0-0.5,0.1-0.9,0.3-1.3c0.2-0.4,0.5-0.8,0.8-1.1s0.9-0.4,1.5-0.4c0.4,0,0.7,0,1,0.1l0-1.3
		c-0.1,0-0.2-0.1-0.4-0.1C140.7,110.2,140.5,110.2,140.4,110.2z"/>
	<path class="st0" d="M146.7,114.5l-1.5-0.4c-0.5-0.1-0.8-0.3-1.1-0.5c-0.2-0.2-0.3-0.5-0.3-0.9c0-0.4,0.2-0.8,0.5-1
		c0.4-0.3,0.9-0.4,1.5-0.4c0.5,0,1,0.1,1.4,0.3s0.9,0.4,1.3,0.8l0.5-1.1c-0.4-0.4-0.9-0.7-1.4-0.9c-0.6-0.2-1.2-0.3-1.8-0.3
		c-0.7,0-1.3,0.1-1.8,0.3c-0.5,0.2-0.9,0.5-1.2,0.9c-0.3,0.4-0.4,0.9-0.4,1.4c0,0.6,0.2,1.1,0.6,1.5c0.4,0.4,1,0.7,1.8,0.9l1.5,0.4
		c0.6,0.1,0.9,0.3,1.2,0.5s0.4,0.5,0.4,0.9c0,0.4-0.2,0.8-0.5,1c-0.4,0.2-0.9,0.4-1.6,0.4c-0.6,0-1.2-0.1-1.7-0.3
		c-0.5-0.2-1-0.4-1.5-0.8l-0.5,1.1c0.9,0.8,2.1,1.2,3.6,1.2c1.1,0,2-0.2,2.6-0.7c0.6-0.5,1-1.1,1-1.9c0-0.6-0.2-1.2-0.6-1.6
		S147.6,114.7,146.7,114.5z"/>
	<rect x="151.5" y="110.4" class="st0" width="1.5" height="9.1"/>
	<rect x="151.4" y="106.5" class="st0" width="1.8" height="1.7"/>
	<path class="st0" d="M157.7,107.5l-1.5,0.5v2.3h-1.8v1.2h1.8v5.1c0,1,0.2,1.7,0.7,2.2c0.5,0.5,1.2,0.7,2,0.7c0.2,0,0.5,0,0.7,0
		s0.4-0.1,0.6-0.1v-1.2c-0.2,0.1-0.3,0.1-0.5,0.1c-0.1,0-0.3,0-0.5,0c-0.3,0-0.6-0.1-0.8-0.2c-0.2-0.1-0.4-0.3-0.6-0.5
		c-0.1-0.3-0.2-0.6-0.2-1.1v-4.9h2.6v-1.2h-2.6V107.5z"/>
	<path class="st0" d="M165.6,117.8l-3.1-7.5H161l3.8,9l-0.4,0.8c-0.2,0.5-0.4,0.8-0.7,1.1c-0.3,0.3-0.6,0.5-1,0.7s-0.8,0.3-1.4,0.5
		l0.3,1.1c0.6-0.1,1.2-0.3,1.7-0.5s1-0.6,1.4-1c0.4-0.4,0.8-1,1.1-1.8l4.2-9.9h-1.5L165.6,117.8z"/>
	<path class="st0" d="M182.5,110.7c-0.6-0.4-1.4-0.6-2.3-0.6c-0.9,0-1.6,0.2-2.3,0.6c-0.6,0.4-1.1,0.9-1.5,1.6
		c-0.4,0.7-0.5,1.5-0.5,2.5c0,1,0.2,1.8,0.5,2.5c0.4,0.7,0.9,1.2,1.5,1.6c0.6,0.4,1.4,0.6,2.3,0.6c0.9,0,1.6-0.2,2.3-0.6
		c0.6-0.4,1.1-0.9,1.5-1.6c0.4-0.7,0.5-1.5,0.5-2.5c0-0.9-0.2-1.8-0.5-2.5C183.6,111.7,183.1,111.1,182.5,110.7z M182.3,117.5
		c-0.5,0.6-1.2,0.9-2.1,0.9c-0.9,0-1.6-0.3-2.1-0.9c-0.5-0.6-0.7-1.5-0.7-2.6c0-1.1,0.2-2,0.7-2.6c0.5-0.6,1.2-0.9,2.1-0.9
		s1.6,0.3,2.1,0.9c0.5,0.6,0.7,1.5,0.7,2.6C183,116,182.7,116.9,182.3,117.5z"/>
	<path class="st0" d="M189.9,106.1c-0.8,0-1.5,0.2-2,0.7c-0.5,0.5-0.7,1.2-0.7,2.2v1.4h-1.8v1.2h1.8v7.9h1.5v-7.9h2.2v-1.2h-2.2
		v-1.2c0-0.5,0.1-0.8,0.2-1.1c0.1-0.3,0.3-0.4,0.5-0.5c0.2-0.1,0.5-0.2,0.8-0.2s0.6,0,0.9,0.1v-1.2c-0.2-0.1-0.4-0.1-0.6-0.1
		C190.3,106.1,190.1,106.1,189.9,106.1z"/>
	<polygon class="st0" points="203.8,117.7 198.9,106.6 197.7,106.6 197.7,119.4 199,119.4 199,110 203.2,119.4 204.3,119.4 
		208.4,109.9 208.4,119.4 209.8,119.4 209.8,106.6 208.6,106.6 	"/>
	<rect x="217.3" y="106.6" class="st0" width="1.6" height="1.5"/>
	<path class="st0" d="M218.9,115.5c0,0.9-0.2,1.6-0.7,2.1c-0.5,0.5-1.1,0.8-1.9,0.8c-0.7,0-1.2-0.2-1.5-0.6s-0.5-1-0.5-1.8v-5.6
		h-1.5v5.6c0,1.2,0.3,2.1,0.8,2.7c0.5,0.6,1.4,0.9,2.4,0.9c0.7,0,1.4-0.2,2-0.6c0.4-0.3,0.8-0.7,1-1.1v1.6h1.4v-9.1h-1.5V115.5z"/>
	<rect x="214.2" y="106.6" class="st0" width="1.6" height="1.5"/>
	<path class="st0" d="M227.7,110.2c-0.8,0-1.4,0.2-2,0.6c-0.5,0.3-0.8,0.7-1.1,1.3l-0.1-1.6H223c0.1,0.4,0.1,0.8,0.1,1.3
		c0,0.4,0,0.8,0,1.3v6.5h1.5v-5.2c0-0.9,0.3-1.6,0.8-2.1c0.5-0.5,1.2-0.8,2-0.8c0.7,0,1.2,0.2,1.6,0.6c0.3,0.4,0.5,1,0.5,1.8v5.6
		h1.5v-5.7C230.9,111.4,229.9,110.2,227.7,110.2z"/>
	<path class="st0" d="M237.8,114.5l-1.5-0.4c-0.5-0.1-0.8-0.3-1.1-0.5c-0.2-0.2-0.3-0.5-0.3-0.9c0-0.4,0.2-0.8,0.5-1
		c0.4-0.3,0.9-0.4,1.5-0.4c0.5,0,1,0.1,1.4,0.3c0.4,0.2,0.9,0.4,1.3,0.8l0.5-1.1c-0.4-0.4-0.9-0.7-1.4-0.9c-0.6-0.2-1.2-0.3-1.8-0.3
		c-0.7,0-1.3,0.1-1.8,0.3c-0.5,0.2-0.9,0.5-1.2,0.9c-0.3,0.4-0.4,0.9-0.4,1.4c0,0.6,0.2,1.1,0.6,1.5c0.4,0.4,1,0.7,1.8,0.9l1.5,0.4
		c0.6,0.1,0.9,0.3,1.2,0.5c0.2,0.2,0.4,0.5,0.4,0.9c0,0.4-0.2,0.8-0.5,1c-0.4,0.2-0.9,0.4-1.6,0.4c-0.6,0-1.2-0.1-1.7-0.3
		c-0.5-0.2-1-0.4-1.5-0.8l-0.5,1.1c0.9,0.8,2.1,1.2,3.6,1.2c1.1,0,2-0.2,2.6-0.7c0.6-0.5,1-1.1,1-1.9c0-0.6-0.2-1.2-0.6-1.6
		C239.3,115,238.7,114.7,237.8,114.5z"/>
	<path class="st0" d="M244.5,107.5l-1.5,0.5v2.3h-1.8v1.2h1.8v5.1c0,1,0.2,1.7,0.7,2.2c0.5,0.5,1.2,0.7,2,0.7c0.2,0,0.5,0,0.7,0
		c0.2,0,0.4-0.1,0.6-0.1v-1.2c-0.2,0.1-0.3,0.1-0.5,0.1c-0.1,0-0.3,0-0.5,0c-0.3,0-0.6-0.1-0.8-0.2c-0.2-0.1-0.4-0.3-0.6-0.5
		c-0.1-0.3-0.2-0.6-0.2-1.1v-4.9h2.6v-1.2h-2.6V107.5z"/>
	<path class="st0" d="M254.6,110.7c-0.6-0.4-1.3-0.5-2.1-0.5c-0.8,0-1.6,0.2-2.2,0.6c-0.6,0.4-1.1,0.9-1.5,1.7s-0.5,1.5-0.5,2.5
		c0,1,0.2,1.8,0.5,2.5s0.9,1.2,1.6,1.6c0.7,0.4,1.5,0.6,2.4,0.6c0.6,0,1.3-0.1,1.9-0.3c0.6-0.2,1.1-0.5,1.5-0.9l-0.5-1.1
		c-0.4,0.4-0.9,0.6-1.4,0.8c-0.5,0.2-1,0.3-1.5,0.3c-1,0-1.8-0.3-2.3-0.9c-0.5-0.6-0.8-1.5-0.8-2.6h6.6v-0.3c0-0.9-0.2-1.7-0.5-2.4
		C255.6,111.6,255.2,111.1,254.6,110.7z M250.5,112.2c0.5-0.6,1.2-0.9,2.1-0.9c0.8,0,1.5,0.3,1.9,0.8c0.3,0.4,0.5,1,0.6,1.8h-5.3
		C249.9,113.2,250.2,112.7,250.5,112.2z"/>
	<path class="st0" d="M262.8,110.2c-0.7,0-1.3,0.2-1.9,0.6c-0.4,0.3-0.7,0.7-0.9,1.3l-0.1-1.7h-1.4c0.1,0.4,0.1,0.8,0.1,1.3
		c0,0.4,0,0.8,0,1.3v6.5h1.5v-5.2c0-0.5,0.1-0.9,0.3-1.3s0.5-0.8,0.8-1.1s0.9-0.4,1.5-0.4c0.4,0,0.7,0,1,0.1l0-1.3
		c-0.1,0-0.2-0.1-0.4-0.1C263.1,110.2,263,110.2,262.8,110.2z"/>
</g>
</svg>
